# xmcd CD database file
#
# Track frame offsets:
#	150
#	22745
#	40640
#
# Disc length: 836 seconds
#
# Revision: 0
# Processed by: cddbd v1.5PL3 Copyright (c) Steve Scherf et al.
# Submitted via: CDex 1.50
#
DISCID=12034203
DTITLE=RABBIT - Thank you my Girl
DYEAR=1992
DGENRE=JPop
TTITLE0=Thank you my Girl
TTITLE1=Favorite song
TTITLE2=Thank you my Girl(original karaoke)
EXTD=YEAR: 1992
EXTT0=
EXTT1=
EXTT2=
PLAYORDER=
